<svg width="36" height="30" viewBox="0 0 36 30" fill="none" xmlns="http://www.w3.org/2000/svg">
<path d="M9.80441 0.374936C11.5201 0.374253 12.7062 0.37378 13.771 0.733137C16.0968 1.51807 17.1174 3.37681 17.9041 4.80953C18.1397 5.23362 18.5682 6.00404 18.688 6.17344C18.7247 6.22882 18.8407 6.34225 19.0107 6.35296C19.2326 6.37361 19.5333 6.375 20.0601 6.375L25.9841 6.375C27.6824 6.37498 29.052 6.37497 30.1509 6.47557C31.2851 6.57942 32.2688 6.79969 33.139 7.32298C33.8214 7.73337 34.4074 8.26072 34.8634 8.87491C35.4448 9.65808 35.6895 10.5434 35.8049 11.5642C35.9167 12.5532 35.9167 13.9099 35.9167 15.4384V15.4385C35.9167 18.0181 35.9167 20.0403 35.7347 21.6504C35.5491 23.2925 35.1639 24.6303 34.3016 25.7918C33.6024 26.7336 32.704 27.5422 31.6576 28.1714C30.367 28.9475 28.8806 29.2942 27.056 29.4612C25.267 29.625 23.0201 29.625 20.1538 29.625H20.1538H17.9044C14.0571 29.625 11.042 29.625 8.68952 29.3404C6.28163 29.049 4.38159 28.441 2.89024 27.0988C1.39889 25.7566 0.723321 24.0465 0.399588 21.8794C0.0833059 19.7622 0.0833224 17.0487 0.0833435 13.5861V13.5861V8.86426V8.86425C0.0833294 7.54615 0.083318 6.48307 0.167405 5.62454C0.254047 4.73993 0.437314 3.96582 0.875671 3.25887C1.44047 2.348 2.27556 1.59641 3.28764 1.08809C4.07315 0.69357 4.93327 0.52863 5.91617 0.450652C6.87009 0.374973 8.33984 0.374923 9.80441 0.374936Z" fill="#FFD44D"/>
</svg>
