<svg width="20" height="20" viewBox="0 0 20 20" fill="none" xmlns="http://www.w3.org/2000/svg">
<path d="M17.8989 4.46354V9.77431C17.8989 14.5903 14.6333 18.8125 9.94923 20C5.2652 18.8125 1.99957 14.5903 1.99957 9.77431V4.46354C5.66103 4.03472 7.77214 2.64931 9.94923 1C12.1263 2.64931 14.2374 4.03472 17.8989 4.46354Z" fill="#FFD15D"/>
<path d="M9.94922 17.8889C6.4197 16.7674 4.01172 13.5017 4.01172 9.7743V6.17882C6.48568 5.65104 8.29991 4.62847 9.94922 3.50694C11.6315 4.66146 13.4128 5.65104 15.8867 6.17882V9.7743C15.8867 13.5017 13.4787 16.7674 9.94922 17.8889Z" fill="#F5B92D"/>
<path d="M8.6298 13.7326L6.65063 11.7865L7.6732 10.7969L8.6298 11.7535L12.2253 8.15799L13.2479 9.14757L8.6298 13.7326Z" fill="white"/>
</svg>
